<?xml version="1.0" encoding="UTF-8" standalone="no"?>
<!-- Created with Inkscape (http://www.inkscape.org/) -->

<svg
   xmlns:dc="http://purl.org/dc/elements/1.1/"
   xmlns:cc="http://creativecommons.org/ns#"
   xmlns:rdf="http://www.w3.org/1999/02/22-rdf-syntax-ns#"
   xmlns:svg="http://www.w3.org/2000/svg"
   xmlns="http://www.w3.org/2000/svg"
   xmlns:sodipodi="http://sodipodi.sourceforge.net/DTD/sodipodi-0.dtd"
   xmlns:inkscape="http://www.inkscape.org/namespaces/inkscape"
   width="300mm"
   height="73.034531mm"
   viewBox="0 0 300 73.034531"
   version="1.1"
   id="svg136"
   sodipodi:docname="drawing.svg"
   inkscape:version="0.92.4 (5da689c313, 2019-01-14)">
  <defs
     id="defs130" />
  <sodipodi:namedview
     id="base"
     pagecolor="#ffffff"
     bordercolor="#111111"
     borderopacity="1.0"
     inkscape:pageopacity="0.0"
     inkscape:pageshadow="2"
     inkscape:zoom="0.0875"
     inkscape:cx="-3298.3755"
     inkscape:cy="-1424.01"
     inkscape:document-units="mm"
     inkscape:current-layer="layer1"
     showgrid="false"
     inkscape:window-width="1680"
     inkscape:window-height="988"
     inkscape:window-x="-8"
     inkscape:window-y="-8"
     inkscape:window-maximized="1"
     fit-margin-top="0"
     fit-margin-left="0"
     fit-margin-right="0"
     fit-margin-bottom="0" />
  <metadata
     id="metadata133">
    <rdf:RDF>
      <cc:Work
         rdf:about="">
        <dc:format>image/svg+xml</dc:format>
        <dc:type
           rdf:resource="http://purl.org/dc/dcmitype/StillImage" />
        <dc:title></dc:title>
      </cc:Work>
    </rdf:RDF>
  </metadata>
  <g
     inkscape:label="Layer 1"
     inkscape:groupmode="layer"
     id="layer1"
     transform="translate(-35.957715,-459.35544)">
    <path
       style="fill:#ffffff;stroke-width:0.19926934"
       d="m 124.79925,459.35581 c -52.176633,0.004 -75.550902,0.0586 -76.282787,0.17021 -3.125073,0.47712 -5.48151,1.65494 -7.91175,3.95481 -1.662779,1.57299 -2.840689,3.25288 -3.611563,5.15069 -1.071721,2.63657 -1.035287,1.78772 -1.035287,24.06829 v 20.72401 l 0.657003,1.88236 c 0.820387,2.35104 1.739725,3.87661 3.388946,5.62446 2.122504,2.25072 4.80949,3.76717 7.858744,4.43508 v 0.003 c 1.04286,0.2286 12.907024,0.27651 72.336674,0.2933 l 71.08929,0.0196 v -0.8967 -0.89668 h -71.10728 c -70.118457,0 -71.128821,-0.005 -72.643931,-0.39254 -2.396649,-0.61295 -4.163631,-1.63797 -6.007084,-3.48381 -1.62144,-1.6236 -2.465768,-2.94728 -3.33902,-5.23472 l -0.439658,-1.15094 -0.05519,-20.59843 c -0.06185,-23.03543 -0.140859,-21.61397 1.382252,-24.73523 1.590896,-3.26113 4.985099,-5.96046 8.644111,-6.87462 1.067593,-0.26694 16.679353,-0.29521 138.69137,-0.25023 l 137.48802,0.0505 1.29543,0.44307 c 4.51435,1.5443 8.06562,5.59583 8.86892,10.11814 0.41542,2.33839 0.41841,39.09587 0.003,41.42508 -0.53446,2.99976 -2.52431,6.23099 -4.94418,8.02834 -2.69431,2.00153 -4.90405,2.64625 -9.0593,2.65225 h -2.83982 v 0.92024 0.91994 l 3.23855,-0.10231 c 3.6549,-0.1161 4.77846,-0.35578 7.22345,-1.54161 3.91939,-1.90122 6.79074,-5.4369 7.88292,-9.70824 0.37036,-1.44745 0.38664,-2.37398 0.38664,-21.87278 0,-19.52484 -0.016,-20.42365 -0.3882,-21.87835 -1.32984,-5.20099 -5.35106,-9.28903 -10.67128,-10.84956 -1.13519,-0.33301 -8.09669,-0.35364 -138.09356,-0.40464 -24.02094,-0.009 -44.6133,-0.0135 -62.00552,-0.0121 z m -55.271353,11.93166 c -0.683006,0.007 -1.356741,0.069 -2.008251,0.18975 -2.850182,0.5285 -6.434518,3.27716 -7.303738,5.6006 -0.650033,1.73707 -0.910923,3.43842 -0.784129,5.11225 0.09336,1.239 0.265144,1.82809 0.91559,3.14058 1.301465,2.62716 2.190083,3.36052 7.011987,5.78817 3.294888,1.65883 4.270137,2.24468 4.934569,2.9654 0.843312,0.91255 0.914146,1.16586 0.837168,2.89999 -0.07711,1.73584 -1.138984,3.05612 -2.957338,3.67574 -2.386615,0.81318 -4.657803,0.0456 -7.104061,-2.40109 -0.509223,-0.50886 -0.967566,-0.88288 -1.01916,-0.83128 -0.05185,0.0517 -0.856313,1.11145 -1.788112,2.35489 l -1.694164,2.26095 0.850487,0.88305 c 1.658525,1.72248 4.047061,2.94873 6.680533,3.43017 0.519652,0.095 1.854613,0.13421 2.96726,0.0862 5.44949,-0.23376 9.104391,-2.92847 10.316574,-7.60637 0.605758,-2.33753 0.31207,-5.07401 -0.774525,-7.21877 -0.271923,-0.53676 -1.001284,-1.52318 -1.620361,-2.19182 -1.02978,-1.11262 -1.492425,-1.40047 -5.455492,-3.39451 -5.482668,-2.75898 -5.947187,-3.21813 -5.74259,-5.68121 0.168847,-2.03842 1.81202,-3.31794 4.259897,-3.31794 1.618139,0 2.747137,0.49284 4.133072,1.80331 l 1.06072,1.00335 1.946545,-2.19553 c 1.154159,-1.30199 1.902809,-2.30838 1.839578,-2.47302 -0.05813,-0.15264 -0.582517,-0.65596 -1.164272,-1.11838 -2.244884,-1.78479 -5.378052,-2.79425 -8.337787,-2.76449 z m 159.496303,0.0167 c -0.70195,-0.009 -1.36906,0.0404 -1.96701,0.15254 -2.71507,0.50905 -5.92221,2.73869 -7.12918,4.95628 -1.09038,2.00335 -1.45351,5.29536 -0.81979,7.43304 0.45228,1.52532 0.91809,2.36878 2.07832,3.76287 0.9591,1.15248 1.21548,1.31661 5.03472,3.22431 4.13408,2.06502 5.5043,2.96727 6.0201,3.96472 0.42618,0.82421 0.38245,2.82926 -0.0815,3.73837 -0.49626,0.97236 -0.89436,1.31123 -2.29164,1.95089 -1.00092,0.45822 -1.35039,0.51918 -2.50497,0.43656 -1.65431,-0.11838 -2.90683,-0.75564 -4.68188,-2.38218 l -1.25884,-1.15342 -1.71586,2.28483 c -0.9438,1.25664 -1.71617,2.37406 -1.71617,2.48356 0,0.33133 2.61501,2.39497 3.80193,3.00012 1.04034,0.5304 2.68796,1.04185 4.06921,1.2632 v -3.2e-4 c 0.32874,0.0528 1.44953,0.0641 2.49071,0.0251 5.20487,-0.19458 8.71499,-2.57332 10.17054,-6.8926 1.2279,-3.64404 0.34032,-7.60321 -2.29661,-10.24465 -1.04383,-1.04559 -1.76395,-1.4884 -5.58385,-3.43204 -3.95721,-2.01347 -4.439,-2.31343 -4.92992,-3.07051 -0.68587,-1.0578 -0.8406,-1.87263 -0.55624,-2.92881 0.47824,-1.77606 2.10219,-2.85956 4.29213,-2.86556 1.5084,-0.004 2.82323,0.58674 4.14456,1.86035 l 0.96459,0.92955 0.85668,-0.92335 c 2.06335,-2.22318 3.07213,-3.50014 2.94091,-3.72224 -0.28164,-0.47689 -2.09917,-1.91121 -2.99827,-2.36606 -1.80729,-0.91427 -4.22679,-1.45869 -6.33263,-1.48457 z m 75.28997,0.003 c -3.56844,-0.0384 -6.60228,1.42517 -8.71947,4.22114 -0.89778,1.1856 -1.31592,2.26954 -1.71834,4.45307 -0.47376,2.56997 0.50486,5.5496 2.57348,7.83548 1.01551,1.12237 1.39037,1.35548 5.10791,3.17592 4.7067,2.30502 5.78163,3.14332 6.0139,4.68934 0.28555,1.90428 -0.31842,3.45551 -1.68239,4.32035 -2.62517,1.66495 -5.25653,1.19802 -8.06772,-1.43153 -1.26384,-1.18225 -1.35216,-1.23019 -1.6092,-0.87097 -0.14958,0.20904 -0.95339,1.27662 -1.78624,2.37258 l -1.51433,1.99275 1.19837,1.12147 c 1.7502,1.638 4.41138,2.92259 6.6765,3.22307 3.63185,0.48168 7.87656,-0.60533 10.07318,-2.57969 1.15481,-1.03807 2.30296,-2.85867 2.78246,-4.41182 0.81796,-2.64697 0.40608,-6.26686 -0.95622,-8.41251 -1.18579,-1.86733 -2.15019,-2.56935 -6.84361,-4.98172 -4.19707,-2.15741 -4.49601,-2.34821 -5.10574,-3.26058 -1.76328,-2.63849 0.23245,-5.74631 3.6897,-5.74631 1.56564,0 2.84993,0.57376 4.14982,1.85416 l 1.01483,0.99899 2.00825,-2.2535 2.00855,-2.25351 -0.63159,-0.67374 c -1.71119,-1.82466 -4.85148,-3.15156 -7.94153,-3.35484 -0.24252,-0.016 -0.48268,-0.0251 -0.72057,-0.0276 z m -172.63875,0.0109 c -2.02498,-0.009 -4.3366,0.30495 -6.64394,0.91498 -2.75436,0.72822 -3.30317,0.96769 -4.78264,2.08669 -2.72839,2.0637 -5.42736,6.3366 -6.51187,10.30945 -0.39389,1.44276 -0.46229,2.16635 -0.46229,4.88218 6e-5,2.71896 0.0662,3.41695 0.45021,4.74236 0.87762,3.02891 2.55124,5.66472 5.12061,8.0643 2.14849,2.0064 4.91001,3.3514 8.04602,3.91882 v -3e-4 c 2.04384,0.37008 5.69673,0.37796 7.92013,0.0173 1.27837,-0.20734 2.44795,-0.57735 3.9855,-1.261 l 2.17599,-0.96769 0.054,-3.71978 c 0.0376,-2.58396 -0.0123,-3.72007 -0.1631,-3.72007 -0.1194,0 -0.71319,0.4042 -1.31961,0.89824 -2.61149,2.1273 -5.25431,3.12354 -8.33561,3.14212 -4.74534,0.0284 -8.01745,-1.85942 -9.83258,-5.67313 -1.02287,-2.14908 -1.30297,-3.40329 -1.29697,-5.83965 0.007,-3.58926 1.02809,-6.28239 3.20694,-8.45498 2.18538,-2.17902 5.15169,-3.40166 8.25344,-3.40166 3.04824,0 5.26579,0.83353 7.42591,2.79115 0.72486,0.65688 1.45068,1.19435 1.61292,1.19435 0.2499,0 0.29486,-0.57576 0.29486,-3.7821 v -3.78209 l -0.74723,-0.3792 c -1.36584,-0.69291 -4.62119,-1.6211 -6.53201,-1.86248 -0.60044,-0.0759 -1.24365,-0.11479 -1.91864,-0.11782 z m 30.68215,0.0363 c -1.77582,-0.001 -3.50629,0.15926 -4.62142,0.4806 -3.37512,0.97258 -6.22028,2.80749 -8.4956,5.47935 -3.10801,3.64979 -4.58611,7.64154 -4.57771,12.3642 0.008,4.4373 1.35706,7.78814 4.38051,10.87778 2.70679,2.76606 6.36932,4.79333 10.14357,5.61455 v 0.002 c 2.4837,0.54037 7.49137,0.42677 9.48437,-0.21517 5.94198,-1.9137 10.55382,-6.90631 12.09725,-13.09626 0.3426,-1.37412 0.43896,-2.35812 0.44556,-4.54391 0.01,-3.30035 -0.25408,-4.49879 -1.58781,-7.21474 -2.10565,-4.28809 -6.948,-7.91248 -12.37475,-9.26176 -1.29687,-0.3233 -3.11813,-0.48548 -4.89397,-0.4865 z m -114.34371,0.52182 v 17.03742 17.0374 h 3.287872 3.287854 v -17.0374 -17.03742 h -3.287854 z m 138.69137,0 v 17.03742 17.0374 h 8.76784 8.76784 v -2.88912 -2.88943 h -5.47998 -5.47997 v -14.14829 -14.14798 h -3.28786 z m 75.62267,0.19627 -5.24961,14.79725 c -2.88718,8.1385 -5.59432,15.7612 -6.01575,16.93943 l -0.76616,2.14125 h 3.53468 3.53467 l 0.65205,-2.24173 c 0.35868,-1.23299 0.83368,-2.84694 1.05574,-3.58674 l 0.40371,-1.34505 h 6.31806 6.31775 l 1.16893,3.58677 1.16922,3.58675 h 3.65281 c 2.00896,0 3.6529,-0.022 3.6469,-0.0496 -0.003,-0.0274 -2.68245,-7.62721 -5.95436,-16.88827 l -5.94879,-16.83804 -3.76008,-0.0511 z m -169.817212,0.003 -5.892355,16.58937 c -3.240722,9.12403 -5.95476,16.74814 -6.031261,16.94253 -0.129969,0.33126 0.08074,0.3499 3.406298,0.29889 l 3.545205,-0.0545 0.477504,-1.594 c 0.262557,-0.87684 0.743903,-2.46861 1.069689,-3.53716 l 0.592535,-1.94283 h 6.320233 6.320234 l 1.14753,3.58676 1.14752,3.58676 h 3.67792 3.6776 l -0.21053,-0.54786 c -0.1659,-0.43193 -10.24708,-28.96197 -11.47713,-32.48096 l -0.296106,-0.84709 h -3.737451 z m 70.872252,5.34746 c 0.85776,0.0102 1.67337,0.0914 2.3307,0.24867 3.21115,0.76824 6.41709,3.32187 7.91674,6.30627 1.64087,3.26551 1.44395,8.00512 -0.46603,11.22009 -1.5762,2.65311 -4.72188,4.969 -7.54186,5.55283 -1.42458,0.29485 -4.06465,0.24818 -5.49083,-0.097 -3.88547,-0.94063 -7.60027,-4.55547 -8.59141,-8.36072 -0.38957,-1.49551 -0.39387,-4.64879 -0.008,-6.12862 0.98657,-3.78775 4.07106,-7.06037 7.7496,-8.22245 1.12522,-0.35542 2.67187,-0.53598 4.10145,-0.51903 z m 102.62969,0.57174 c 0.15085,0.17568 4.18641,14.7987 4.18641,15.16962 0,0.17082 -1.16829,0.23316 -4.37337,0.23316 h -4.37307 l 0.27068,-0.94661 c 0.14886,-0.52056 1.14426,-4.0219 2.21196,-7.78061 1.06771,-3.75875 2.00252,-6.7628 2.07739,-6.67556 z m -169.857217,0.0223 c 0.04337,-0.01 0.07484,0.0554 0.111316,0.14262 0.138128,0.33029 3.648027,13.02393 4.061761,14.68964 l 0.13643,0.54818 h -4.418949 c -4.115879,0 -4.411757,-0.024 -4.313539,-0.3488 0.05796,-0.19178 0.875998,-3.08388 1.817878,-6.4266 2.006298,-7.12041 2.417175,-8.56362 2.605103,-8.60504 z m 149.101907,21.13391 c -0.63253,0.002 -1.27416,0.1694 -1.86439,0.51532 -1.39949,0.8202 -2.07768,2.9994 -1.41511,4.54793 0.36379,0.85015 1.295,1.70229 2.2439,2.05352 1.50684,0.55771 3.11436,0.10383 3.9613,-1.11837 0.47244,-0.68172 0.5975,-1.09574 0.6533,-2.16267 0.0611,-1.167 0.006,-1.41543 -0.47562,-2.14808 -0.72121,-1.09648 -1.89585,-1.69219 -3.10338,-1.68765 z m 75.1278,0.0359 c -0.21206,-6e-4 -0.43252,0.0119 -0.66197,0.0379 -1.71526,0.19331 -2.88185,1.64926 -2.89068,3.60783 -0.008,1.70233 0.82498,2.82048 2.56296,3.44165 0.86434,0.30888 1.0901,0.31827 2.08451,0.0874 2.01376,-0.46721 3.13942,-3.20084 2.13166,-5.1758 -0.68056,-1.33446 -1.74199,-1.99365 -3.22648,-1.99895 z m -33.5784,0.0233 c -0.0877,0.001 -0.17839,0.004 -0.27224,0.009 -1.60266,0.0794 -2.45607,0.61749 -3.00292,1.89322 -0.93665,2.18513 -0.0276,4.37272 2.13817,5.1448 0.91633,0.32664 1.13153,0.33717 2.13413,0.10449 2.26212,-0.52494 3.30873,-3.7621 1.83928,-5.68865 -0.86333,-1.13185 -1.52041,-1.48444 -2.83642,-1.46285 z m -24.61028,18.87481 c -2.54532,-0.0133 -4.12105,0.58934 -5.52494,2.11243 -1.11227,1.20666 -1.79791,2.73438 -1.94779,4.33896 -0.33521,3.58956 1.73749,6.70296 5.09923,7.65876 v -3.2e-4 c 1.28748,0.36594 3.95106,0.19404 4.95876,-0.31997 1.68348,-0.85879 3.46207,-3.59273 3.73963,-5.74788 l 0.13487,-1.04645 h -2.91518 -2.91485 v 1.09638 1.09574 h 1.49447 c 0.86065,0 1.49449,0.0846 1.49449,0.19876 0,0.39839 -1.51537,1.86575 -2.29165,2.2194 -1.47628,0.67242 -3.51684,0.37236 -4.64995,-0.68399 -0.90024,-0.83911 -1.48331,-2.31048 -1.48331,-3.7266 0.003,-1.5375 0.35149,-2.45432 1.3562,-3.5663 1.61663,-1.78908 4.30652,-1.77582 6.21139,0.031 l 0.63748,0.60493 1.00676,-0.76801 1.00708,-0.7674 -0.74755,-0.7674 c -0.41112,-0.42162 -1.28942,-1.03401 -1.95152,-1.36053 -1.00722,-0.49692 -1.45056,-0.59492 -2.71362,-0.60152 z m -63.25908,0.0149 c -0.75322,-0.0166 -1.49193,0.11062 -2.06592,0.40338 -2.15737,1.10094 -2.80942,4.14837 -1.27713,5.96925 0.28019,0.33299 1.28017,1.02576 2.22218,1.53913 2.08819,1.13838 2.43893,1.47094 2.43893,2.31333 0,0.87548 -0.46192,1.48252 -1.30504,1.71525 -0.91092,0.25141 -1.79322,-0.0111 -2.571,-0.76522 l -0.61362,-0.595 -0.68709,1.00738 -0.6874,1.00706 0.49114,0.39472 c 0.27005,0.21755 0.84957,0.57083 1.28799,0.78599 1.22784,0.60228 3.72783,0.47018 4.82295,-0.25456 1.93164,-1.27884 2.27827,-4.39447 0.69019,-6.20364 -0.17441,-0.19856 -1.08278,-0.77294 -2.01849,-1.27652 -2.21938,-1.194 -2.4015,-1.3614 -2.3955,-2.2287 0.004,-0.82825 0.12992,-1.06766 0.73112,-1.38379 0.69917,-0.3681 1.54594,-0.26699 2.35396,0.28154 0.41388,0.28078 0.80819,0.43759 0.87623,0.34851 0.068,-0.0889 0.38488,-0.4518 0.70414,-0.80617 0.57624,-0.63965 0.57779,-0.64726 0.19782,-1.07404 -0.64384,-0.72352 -1.94011,-1.1503 -3.19546,-1.1779 z m 111.72464,0.007 c -1.15627,0 -1.46198,0.0815 -2.25009,0.60399 -1.12085,0.74227 -1.50421,1.30578 -1.74222,2.5617 -0.39954,2.10575 0.39607,3.34551 3.07423,4.78917 1.96961,1.06181 2.30187,1.40065 2.30187,2.34931 0,0.77886 -0.46923,1.37909 -1.28829,1.6495 -0.57888,0.19087 -0.8252,0.16609 -1.54377,-0.15533 -0.46992,-0.21017 -1.02393,-0.57323 -1.23125,-0.80615 l -0.3758,-0.42416 -0.66508,0.93545 -0.66507,0.93513 0.44307,0.48276 c 0.24432,0.26514 0.80245,0.64725 1.24056,0.84988 1.5262,0.70409 4.253,0.40955 5.34509,-0.57734 0.98476,-0.89087 1.51021,-2.81924 1.14194,-4.18827 -0.33403,-1.24031 -1.20128,-2.0848 -3.20165,-3.11794 -0.98153,-0.50707 -1.87584,-1.09187 -1.98717,-1.29977 -0.95427,-1.78284 1.36779,-3.22908 2.99145,-1.86284 l 0.63375,0.53301 0.67252,-0.78259 c 0.36938,-0.42991 0.65157,-0.9123 0.62632,-1.07094 -0.0254,-0.15901 -0.52693,-0.53988 -1.11436,-0.84678 -0.86071,-0.44994 -1.32745,-0.55779 -2.40605,-0.55779 z m -65.27198,0.19006 -2.27428,6.63029 c -1.25082,3.64657 -2.31537,6.74632 -2.36636,6.88888 v 10e-4 c -0.0712,0.19907 0.22125,0.24525 1.27743,0.19906 l 1.36954,-0.0595 0.38757,-1.35062 0.38757,-1.35061 2.58528,0.0552 2.58525,0.0552 0.43161,1.29541 0.43129,1.29512 1.41015,0.0583 1.41014,0.0583 -1.89569,-5.53795 c -1.04269,-3.04603 -2.09609,-6.12108 -2.34094,-6.83369 l -0.44525,-1.29482 -1.47681,-0.0549 z m 45.73828,0.005 -0.053,5.2806 -0.0527,5.28093 -3.38768,-5.27906 -3.3874,-5.27813 h -1.34504 -1.34502 v 6.87462 l -6e-4,6.87091 h 1.19557 1.19559 v -5.32031 c 0,-3.77399 0.0621,-5.25886 0.213,-5.10758 0.11712,0.11693 1.66385,2.48894 3.43732,5.27037 l 3.22461,5.05798 1.34504,0.0586 1.34502,0.0589 v -6.88391 -6.88393 h -1.19248 z m -85.89118,0.004 v 6.87462 6.87492 h 1.29543 1.29511 v -3.0888 -3.08849 h 2.88944 2.88945 v 3.08849 3.0888 h 1.29511 1.29542 v -6.87492 -6.87462 h -1.29542 -1.29511 v 2.69007 2.69006 h -2.88945 -2.88944 v -2.69006 -2.69007 h -1.29511 z m 14.54672,0 v 6.87462 6.87492 h 1.29511 1.29542 v -6.87492 -6.87462 h -1.29542 z m 5.77886,0 v 6.87462 6.87492 h 1.29512 1.29543 v -2.56262 -2.56326 l 1.2145,-0.10975 c 1.70766,-0.15506 2.9211,-0.82854 3.66582,-2.0343 0.50962,-0.82482 0.59903,-1.16969 0.59903,-2.29691 -4.7e-4,-1.12411 -0.0921,-1.47575 -0.60028,-2.30623 -0.95382,-1.55886 -1.78697,-1.87647 -4.92125,-1.87647 z m 45.83194,0 v 6.87462 6.87492 h 3.68628 3.68659 v -1.09606 -1.09604 h -2.39117 -2.39117 v -1.89292 -1.89322 h 2.39117 2.39117 v -1.09574 -1.09636 h -2.39117 -2.39117 v -1.69354 -1.69355 h 2.39117 2.39117 v -1.09636 -1.09575 h -3.68659 z m 24.11139,0 v 1.09576 1.09636 h 1.79368 1.79338 v 5.77824 5.77918 h 1.29543 1.2948 v -5.77918 -5.77824 h 1.69417 1.69352 v -1.09636 -1.09576 h -4.78234 z m -67.35278,2.19273 h 0.6477 c 0.82999,10e-4 1.89732,0.65082 2.14686,1.30722 0.34978,0.91992 0.22426,1.49172 -0.48308,2.19924 v 6e-4 c -0.55013,0.55008 -0.83101,0.67747 -1.49449,0.67747 h -0.81699 v -2.09227 z m 18.72691,0.33518 c 0.14994,0.17221 1.59836,5.61798 1.59836,6.00925 0,0.15653 -0.54419,0.23068 -1.69387,0.23068 -1.17322,0 -1.69352,-0.0728 -1.69352,-0.23626 0,-0.57217 1.66208,-6.14977 1.78903,-6.00367 z"
       id="path3837"
       inkscape:connector-curvature="0" />
  </g>
</svg>
